{
  "source": "C:\\Users\\Peter\\Desktop\\stuff\\MIUN\\quantitative_research\\video_compression\\videos\\BVI-HD\\BVI-HD_CDVL_videos\\ORIG\\PlasmaSlowRandom_1920x1080_60fps.mp4",
  "output": "C:\\Users\\Peter\\Desktop\\stuff\\MIUN\\quantitative_research\\video_compression\\compressed_videos\\BVI-HD\\av1\\1.5\\PlasmaSlowRandom_1920x1080_60fps_av1.mkv",
  "codec": "av1",
  "ok": "Input #0, mov,mp4,m4a,3gp,3g2,mj2, from 'C:\\Users\\Peter\\Desktop\\stuff\\MIUN\\quantitative_research\\video_compression\\videos\\BVI-HD\\BVI-HD_CDVL_videos\\ORIG\\PlasmaSlowRandom_1920x1080_60fps.mp4':\n  Metadata:\n    major_brand     : isom\n    minor_version   : 512\n    compatible_brands: isomiso2avc1mp41\n    encoder         : Lavf54.28.101\n  Duration: 00:00:05.00, start: 0.000000, bitrate: 23030 kb/s\n  Stream #0:0[0x1](und): Video: h264 (High 4:4:4 Predictive) (avc1 / 0x31637661), yuv420p(progressive), 1920x1080, 23026 kb/s, 60 fps, 60 tbr, 60 tbn (default)\n    Metadata:\n      handler_name    : VideoHandler\n      vendor_id       : [0][0][0][0]\n[out#0/matroska @ 000002058ab54d00] Codec AVOption b:a (set bitrate (in bits/s)) has not been used for any stream. The most likely reason is either wrong type (e.g. a video option with no video streams) or that it is a private option of some decoder which was not actually used for any stream.\nStream mapping:\n  Stream #0:0 -> #0:0 (h264 (native) -> av1 (libsvtav1))\nPress [q] to stop, [?] for help\nSvt[info]: -------------------------------------------\nSvt[info]: SVT [version]:\tSVT-AV1 Encoder Lib v3.1.0-19-g6ecfe8ec\nSvt[info]: SVT [build]  :\tGCC 15.2.0\t 64 bit\nSvt[info]: LIB Build date: Aug 17 2025 11:37:13\nSvt[info]: -------------------------------------------\nSvt[info]: Level of Parallelism: 5\nSvt[info]: Number of PPCS 93\nSvt[info]: [asm level on system : up to avx2]\nSvt[info]: [asm level selected : up to avx2]\nSvt[info]: -------------------------------------------\nSvt[info]: SVT [config]: main profile\ttier (auto)\tlevel (auto)\nSvt[info]: SVT [config]: width / height / fps numerator / fps denominator \t\t: 1920 / 1080 / 60 / 1\nSvt[info]: SVT [config]: bit-depth / color format \t\t\t\t\t: 8 / YUV420\nSvt[info]: SVT [config]: preset / tune / pred struct \t\t\t\t\t: 4 / PSNR / random access\nSvt[info]: SVT [config]: gop size / mini-gop size / key-frame type \t\t\t: 321 / 16 / key frame\nSvt[info]: SVT [config]: BRC mode / target bitrate (kbps)\t\t\t\t: VBR / 1500 \nSvt[info]: SVT [config]: AQ mode / Variance Boost \t\t\t\t\t: 2 / 0\nSvt[info]: SVT [config]: sharpness / luminance-based QP bias \t\t\t\t: 0 / 0\nSvt[info]: SVT [config]: QP scale compress strength \t\t\t\t\t: 0\nSvt[info]: -------------------------------------------\nOutput #0, matroska, to 'C:\\Users\\Peter\\Desktop\\stuff\\MIUN\\quantitative_research\\video_compression\\compressed_videos\\BVI-HD\\av1\\1.5\\PlasmaSlowRandom_1920x1080_60fps_av1.mkv':\n  Metadata:\n    major_brand     : isom\n    minor_version   : 512\n    compatible_brands: isomiso2avc1mp41\n    encoder         : Lavf62.3.100\n  Stream #0:0(und): Video: av1 (AV01 / 0x31305641), yuv420p(tv, progressive), 1920x1080, q=2-31, 1500 kb/s, 60 fps, 1k tbn (default)\n    Metadata:\n      encoder         : Lavc62.11.100 libsvtav1\n      handler_name    : VideoHandler\n      vendor_id       : [0][0][0][0]\n    Side data:\n      cpb: bitrate max/min/avg: 0/0/1500000 buffer size: 1500000 vbv_delay: N/A\nframe=    0 fps=0.0 q=0.0 size=       0KiB time=N/A bitrate=N/A speed=N/A elapsed=0:00:01.04    \nframe=    0 fps=0.0 q=0.0 size=       0KiB time=N/A bitrate=N/A speed=N/A elapsed=0:00:01.55    \nframe=    1 fps=0.5 q=17.0 size=       1KiB time=00:00:00.00 bitrate=N/A speed=   0x elapsed=0:00:02.06    \nframe=    2 fps=0.8 q=31.0 size=       1KiB time=00:00:00.01 bitrate= 341.8kbits/s speed=0.00642x elapsed=0:00:02.59    \nframe=    7 fps=2.3 q=27.0 size=       1KiB time=00:00:00.10 bitrate=  57.0kbits/s speed=0.0322x elapsed=0:00:03.10    \nframe=   14 fps=3.9 q=25.0 size=       1KiB time=00:00:00.21 bitrate=  26.3kbits/s speed=0.0597x elapsed=0:00:03.63    \nframe=   20 fps=4.8 q=25.0 size=       1KiB time=00:00:00.31 bitrate=  18.0kbits/s speed=0.0762x elapsed=0:00:04.15    \nframe=   26 fps=5.6 q=24.0 size=       1KiB time=00:00:00.41 bitrate=  13.7kbits/s speed=0.0891x elapsed=0:00:04.67    \nframe=   34 fps=6.5 q=25.0 size=       1KiB time=00:00:00.55 bitrate=  10.4kbits/s speed=0.106x elapsed=0:00:05.19    \nframe=   39 fps=6.8 q=26.0 size=       1KiB time=00:00:00.63 bitrate=   9.0kbits/s speed=0.111x elapsed=0:00:05.69    \nframe=   44 fps=7.0 q=25.0 size=       1KiB time=00:00:00.71 bitrate=   7.9kbits/s speed=0.115x elapsed=0:00:06.24    \nframe=   51 fps=7.5 q=26.0 size=       1KiB time=00:00:00.83 bitrate=   6.8kbits/s speed=0.123x elapsed=0:00:06.77    \nframe=   55 fps=7.5 q=26.0 size=       1KiB time=00:00:00.90 bitrate=   6.3kbits/s speed=0.123x elapsed=0:00:07.30    \nframe=   61 fps=7.8 q=24.0 size=       1KiB time=00:00:01.00 bitrate=   5.7kbits/s speed=0.128x elapsed=0:00:07.82    \nframe=   68 fps=8.1 q=26.0 size=       1KiB time=00:00:01.11 bitrate=   5.1kbits/s speed=0.134x elapsed=0:00:08.35    \nframe=   73 fps=8.2 q=20.0 size=       1KiB time=00:00:01.20 bitrate=   4.7kbits/s speed=0.135x elapsed=0:00:08.87    \nframe=   80 fps=8.5 q=26.0 size=       1KiB time=00:00:01.31 bitrate=   4.3kbits/s speed=0.14x elapsed=0:00:09.39    \nframe=   85 fps=8.6 q=24.0 size=       1KiB time=00:00:01.40 bitrate=   4.1kbits/s speed=0.141x elapsed=0:00:09.90    \nframe=   90 fps=8.6 q=25.0 size=       1KiB time=00:00:01.48 bitrate=   3.8kbits/s speed=0.142x elapsed=0:00:10.44    \nframe=   98 fps=8.9 q=26.0 size=       1KiB time=00:00:01.61 bitrate=   3.5kbits/s speed=0.147x elapsed=0:00:10.96    \nframe=  103 fps=9.0 q=26.0 size=       1KiB time=00:00:01.70 bitrate=   3.4kbits/s speed=0.148x elapsed=0:00:11.48    \nframe=  109 fps=9.1 q=24.0 size=       1KiB time=00:00:01.80 bitrate=   3.2kbits/s speed=0.15x elapsed=0:00:12.02    \nframe=  115 fps=9.2 q=27.0 size=       1KiB time=00:00:01.90 bitrate=   3.0kbits/s speed=0.151x elapsed=0:00:12.54    \nframe=  120 fps=9.2 q=30.0 size=       1KiB time=00:00:01.96 bitrate=   2.9kbits/s speed=0.15x elapsed=0:00:13.08    \nframe=  127 fps=9.3 q=28.0 size=       1KiB time=00:00:02.10 bitrate=   2.7kbits/s speed=0.154x elapsed=0:00:13.60    \nframe=  133 fps=9.4 q=26.0 size=       1KiB time=00:00:02.20 bitrate=   2.6kbits/s speed=0.156x elapsed=0:00:14.12    \nframe=  138 fps=9.4 q=32.0 size=       1KiB time=00:00:02.28 bitrate=   2.5kbits/s speed=0.156x elapsed=0:00:14.64    \nframe=  145 fps=9.6 q=15.0 size=       1KiB time=00:00:02.40 bitrate=   2.4kbits/s speed=0.158x elapsed=0:00:15.18    \nframe=  149 fps=9.5 q=26.0 size=       1KiB time=00:00:02.46 bitrate=   2.3kbits/s speed=0.157x elapsed=0:00:15.70    \nframe=  154 fps=9.5 q=31.0 size=       1KiB time=00:00:02.55 bitrate=   2.2kbits/s speed=0.157x elapsed=0:00:16.21    \nframe=  161 fps=9.6 q=19.0 size=       1KiB time=00:00:02.66 bitrate=   2.1kbits/s speed=0.159x elapsed=0:00:16.75    \nframe=  166 fps=9.6 q=30.0 size=       1KiB time=00:00:02.75 bitrate=   2.1kbits/s speed=0.159x elapsed=0:00:17.26    \nframe=  170 fps=9.6 q=31.0 size=       1KiB time=00:00:02.81 bitrate=   2.0kbits/s speed=0.158x elapsed=0:00:17.78    \nframe=  176 fps=9.6 q=30.0 size=       1KiB time=00:00:02.91 bitrate=   2.0kbits/s speed=0.159x elapsed=0:00:18.29    \nframe=  182 fps=9.7 q=30.0 size=       1KiB time=00:00:03.01 bitrate=   1.9kbits/s speed=0.16x elapsed=0:00:18.80    \nframe=  187 fps=9.7 q=29.0 size=       1KiB time=00:00:03.10 bitrate=   1.8kbits/s speed=0.16x elapsed=0:00:19.32    \nframe=  195 fps=9.8 q=30.0 size=       1KiB time=00:00:03.23 bitrate=   1.8kbits/s speed=0.163x elapsed=0:00:19.85    \nframe=  199 fps=9.8 q=30.0 size=       1KiB time=00:00:03.30 bitrate=   1.7kbits/s speed=0.162x elapsed=0:00:20.37    \nframe=  205 fps=9.8 q=26.0 size=       1KiB time=00:00:03.40 bitrate=   1.7kbits/s speed=0.163x elapsed=0:00:20.90    \nframe=  213 fps=9.9 q=24.0 size=       1KiB time=00:00:03.53 bitrate=   1.6kbits/s speed=0.165x elapsed=0:00:21.43    \nframe=  217 fps=9.9 q=26.0 size=       1KiB time=00:00:03.60 bitrate=   1.6kbits/s speed=0.164x elapsed=0:00:21.95    \nframe=  223 fps=9.9 q=28.0 size=       1KiB time=00:00:03.70 bitrate=   1.5kbits/s speed=0.165x elapsed=0:00:22.48    \nframe=  229 fps= 10 q=24.0 size=       1KiB time=00:00:03.80 bitrate=   1.5kbits/s speed=0.165x elapsed=0:00:23.00    \nframe=  235 fps= 10 q=28.0 size=       1KiB time=00:00:03.90 bitrate=   1.5kbits/s speed=0.166x elapsed=0:00:23.53    \nframe=  243 fps= 10 q=30.0 size=       1KiB time=00:00:04.03 bitrate=   1.4kbits/s speed=0.168x elapsed=0:00:24.06    \nframe=  249 fps= 10 q=24.0 size=       1KiB time=00:00:04.13 bitrate=   1.4kbits/s speed=0.168x elapsed=0:00:24.58    \nframe=  255 fps= 10 q=28.0 size=       1KiB time=00:00:04.23 bitrate=   1.3kbits/s speed=0.169x elapsed=0:00:25.10    \nframe=  261 fps= 10 q=25.0 size=       1KiB time=00:00:04.33 bitrate=   1.3kbits/s speed=0.169x elapsed=0:00:25.62    \nframe=  267 fps= 10 q=31.0 size=       1KiB time=00:00:04.43 bitrate=   1.3kbits/s speed=0.17x elapsed=0:00:26.14    \nframe=  277 fps= 10 q=32.0 size=       1KiB time=00:00:04.60 bitrate=   1.2kbits/s speed=0.173x elapsed=0:00:26.65    \nframe=  281 fps= 10 q=29.0 size=       1KiB time=00:00:04.66 bitrate=   1.2kbits/s speed=0.172x elapsed=0:00:27.18    \nframe=  287 fps= 10 q=32.0 size=       1KiB time=00:00:04.76 bitrate=   1.2kbits/s speed=0.172x elapsed=0:00:27.70    \n[out#0/matroska @ 000002058ab54d00] video:892KiB audio:0KiB subtitle:0KiB other streams:0KiB global headers:0KiB muxing overhead: 0.232333%\nframe=  300 fps= 11 q=32.0 Lsize=     894KiB time=00:00:04.98 bitrate=1469.6kbits/s speed=0.179x elapsed=0:00:27.90    \n",
  "seconds": 28.285829067230225,
  "probe_out": {}
}